<?xml version="1.0" encoding="utf-8"?>
<!-- Generator: Adobe Illustrator 26.0.0, SVG Export Plug-In . SVG Version: 6.00 Build 0)  -->
<svg version="1.1" id="Layer_1" xmlns="http://www.w3.org/2000/svg" xmlns:xlink="http://www.w3.org/1999/xlink" x="0px" y="0px"
	 viewBox="0 0 768.4 759" style="enable-background:new 0 0 768.4 759;" xml:space="preserve">
<style type="text/css">
	.st0{fill-rule:evenodd;clip-rule:evenodd;fill:#303030;}
</style>
<path class="st0" d="M465.8,370.7c-62.8,3.5-102.3-10.9-165.1-7.2c-15.6,0.8-31,3.1-46.3,6.7c9.2-114.5,91.5-214.7,203.4-221.1
	c68.6-3.9,137.3,37.8,141,105.6C602.5,321.3,551,365.9,465.8,370.7L465.8,370.7z M297,604.9c-65.7,3.7-131.5-35.4-135.1-98.8
	c-3.4-62.3,45.9-104,127.5-108.6c60.2-3.4,98,10.2,158.1,6.8c14.9-0.8,29.8-2.9,44.4-6.3C483,505.2,404.2,598.9,297,604.9z"/>
</svg>
